<svg xmlns="http://www.w3.org/2000/svg" width="1920" height="1080" viewBox="0 0 1920 1080">
  <defs>
    <pattern id="grid" width="120" height="120" patternUnits="userSpaceOnUse">
      <path d="M0 0 H120 M0 0 V120" stroke="#E3E9F8" stroke-width="1" opacity=".5"/>
      <path d="M60 0 V120 M0 60 H120" stroke="#E3E9F8" stroke-width="1" opacity=".25"/>
    </pattern>
    <linearGradient id="b" x1="0" y1="0" x2="1" y2="1">
      <stop offset="0" stop-color="#0F66FF" stop-opacity=".3"/>
      <stop offset="1" stop-color="#11C5D9" stop-opacity=".25"/>
    </linearGradient>
    <filter id="soft" x="-20%" y="-20%" width="140%" height="140%"><feGaussianBlur stdDeviation="2"/></filter>
  </defs>
  <rect width="1920" height="1080" fill="url(#grid)"/>
  <g fill="none" stroke="url(#b)" stroke-width="2" filter="url(#soft)">
    <path d="M-100,900 C300,700 900,1080 1400,860 C1850,700 2200,800 2600,650" />
    <path d="M-100,600 C300,400 900,700 1300,480 C1700,360 2000,460 2500,320" />
    <path d="M-100,1050 C500,900 900,980 1500,880 C1900,830 2100,820 2600,760" />
  </g>
</svg>